<svg width="40" height="40" viewBox="0 0 40 40" xmlns="http://www.w3.org/2000/svg">
<path d="M20.0004 19.9769C19.2069 19.9771 18.4311 19.742 17.7711 19.3013C17.1112 18.8606 16.5968 18.2341 16.2929 17.501C15.9891 16.7679 15.9094 15.9612 16.0641 15.1828C16.2187 14.4045 16.6007 13.6895 17.1617 13.1282C17.7228 12.567 18.4376 12.1847 19.2159 12.0297C19.9942 11.8748 20.801 11.9541 21.5342 12.2577C22.2674 12.5612 22.8941 13.0754 23.3351 13.7352C23.776 14.395 24.0115 15.1707 24.0116 15.9642C24.0105 17.0279 23.5877 18.0477 22.8357 18.8C22.0837 19.5522 21.0641 19.9755 20.0004 19.9769ZM20.0004 13.9525C19.6024 13.9524 19.2133 14.0703 18.8822 14.2913C18.5512 14.5123 18.2932 14.8266 18.1408 15.1943C17.9884 15.562 17.9484 15.9666 18.026 16.357C18.1036 16.7474 18.2953 17.106 18.5767 17.3875C18.8581 17.6689 19.2167 17.8606 19.6071 17.9383C19.9975 18.0159 20.4021 17.9761 20.7698 17.8237C21.1376 17.6714 21.4518 17.4134 21.6729 17.0824C21.894 16.7514 22.0119 16.3623 22.0118 15.9642C22.0111 15.431 21.799 14.9198 21.4219 14.5427C21.0449 14.1656 20.5337 13.9533 20.0004 13.9525ZM21.0625 34H18.9564L18.6873 33.5379C18.4181 33.0758 12.0816 22.1902 11.0394 18.4642C10.7913 17.5749 10.6659 16.6558 10.6666 15.7325C10.6176 13.2053 11.5726 10.7617 13.3222 8.93738C15.0718 7.11303 17.4733 6.05673 20.0004 6C22.5273 6.05692 24.9286 7.11331 26.6781 8.93764C28.4275 10.762 29.3823 13.2054 29.3333 15.7325C29.3341 16.5241 29.2423 17.313 29.0596 18.0832C28.5758 20.1167 22.0674 32.147 21.3272 33.5124L21.0625 34ZM20.0004 7.86667C17.9677 7.92257 16.0401 8.78179 14.6397 10.2561C13.2393 11.7305 12.4803 13.6997 12.5289 15.7325C12.5281 16.4858 12.6303 17.2356 12.8327 17.9611C13.6875 21.0154 18.6954 29.8182 19.9903 32.0677C22.7558 26.9508 26.9389 18.9509 27.2481 17.6493C27.397 17.0213 27.4718 16.378 27.4709 15.7325C27.5197 13.6998 26.7609 11.7306 25.3607 10.2562C23.9604 8.7819 22.0329 7.92263 20.0004 7.86667Z" fill="blue"/>
</svg>
