<?xml version="1.0" encoding="utf-8"?>
<svg version="1.1" id="Layer_1" xmlns="http://www.w3.org/2000/svg" xmlns:xlink="http://www.w3.org/1999/xlink" x="0px" y="0px"
	  width="35px" style="enable-background:new 0 0 35 52.5;" xml:space="preserve">

<g>
	<path class="st0" fill="lightblue" d="M17.5,14.9c-0.7,0-1.5,0.2-2.1,0.6c-0.6,0.4-1.1,1-1.4,1.7c-0.3,0.7-0.4,1.4-0.2,2.2c0.1,0.7,0.5,1.4,1,1.9
		s1.2,0.9,1.9,1s1.5,0.1,2.2-0.2s1.3-0.8,1.7-1.4c0.4-0.6,0.6-1.4,0.6-2.1c0-1-0.4-2-1.1-2.7C19.5,15.3,18.5,14.9,17.5,14.9z"/>
	<path class="st0" fill="lightblue" d="M17.5,3.5C13.7,3.6,10.1,5.2,7.4,8c-2.6,2.8-4,6.5-4,10.3c0,1.4,0.2,2.8,0.6,4.2C5.6,28.2,15,44.7,17.4,49
		c5.2-9.6,13-24.6,13.6-27c0.3-1.2,0.4-2.4,0.4-3.6c0.1-3.8-1.3-7.5-4-10.3C24.9,5.2,21.3,3.6,17.5,3.5z M22.8,23.9
		c-1.4,1.4-3.3,2.2-5.3,2.2c-1.5,0-2.9-0.4-4.2-1.3c-1.2-0.8-2.2-2-2.8-3.4c-0.6-1.4-0.7-2.9-0.4-4.3c0.3-1.5,1-2.8,2.1-3.9
		c1.1-1.1,2.4-1.8,3.9-2.1c1.5-0.3,3-0.1,4.3,0.4c1.4,0.6,2.5,1.5,3.4,2.8c0.8,1.2,1.3,2.7,1.3,4.2C25,20.6,24.2,22.5,22.8,23.9z"/>
</g>
<path class="st1" fill="blue" d="M17.5,26.2c-1.5,0-2.9-0.4-4.2-1.3c-1.2-0.8-2.2-2-2.8-3.4c-0.6-1.4-0.7-2.9-0.4-4.3c0.3-1.5,1-2.8,2.1-3.9
	c1.1-1.1,2.4-1.8,3.9-2.1c1.5-0.3,3-0.1,4.3,0.4c1.4,0.6,2.5,1.5,3.4,2.8c0.8,1.2,1.3,2.7,1.3,4.2c0,2-0.8,3.9-2.2,5.3
	C21.4,25.4,19.5,26.2,17.5,26.2z M17.5,14.9c-0.7,0-1.5,0.2-2.1,0.6c-0.6,0.4-1.1,1-1.4,1.7c-0.3,0.7-0.4,1.4-0.2,2.2
	c0.1,0.7,0.5,1.4,1,1.9s1.2,0.9,1.9,1s1.5,0.1,2.2-0.2s1.3-0.8,1.7-1.4c0.4-0.6,0.6-1.4,0.6-2.1c0-1-0.4-2-1.1-2.7
	C19.5,15.3,18.5,14.9,17.5,14.9z M19.5,52.5h-3.9L15,51.6C14.5,50.7,2.7,30.3,0.7,23.3C0.2,21.7,0,19.9,0,18.2
	c-0.1-4.7,1.7-9.3,5-12.7S12.8,0.1,17.5,0c4.7,0.1,9.2,2.1,12.5,5.5s5.1,8,5,12.7c0,1.5-0.2,3-0.5,4.4C33.6,26.4,21.4,49,20,51.5
	L19.5,52.5z M17.5,3.5C13.7,3.6,10.1,5.2,7.4,8c-2.6,2.8-4,6.5-4,10.3c0,1.4,0.2,2.8,0.6,4.2C5.6,28.2,15,44.7,17.4,49
	c5.2-9.6,13-24.6,13.6-27c0.3-1.2,0.4-2.4,0.4-3.6c0.1-3.8-1.3-7.5-4-10.3C24.9,5.2,21.3,3.6,17.5,3.5L17.5,3.5z"/>
</svg>
